<?xml version="1.0" encoding="utf-8"?>
<!-- Generator: Adobe Illustrator 27.5.0, SVG Export Plug-In . SVG Version: 6.00 Build 0)  -->
<svg version="1.1" id="Capa_1" xmlns="http://www.w3.org/2000/svg" xmlns:xlink="http://www.w3.org/1999/xlink" x="0px" y="0px"
	 viewBox="0 0 2372 1898" style="enable-background:new 0 0 2372 1898;" xml:space="preserve">
<path style="fill:#FDE4CC;" d="M2123.781,332.148h-44.609v-44.276H959.906v44.276h-374.79v-44.223h-26.853v-32.854H319.387v32.854
	h-26.853v44.223h-44.609c-64.053,0-115.979,51.925-115.979,115.979v220.42v590.062v112.37v155.339v12.42h0.659
	c6.198,58.213,55.462,103.559,115.32,103.559h1875.856c59.858,0,109.122-45.346,115.32-103.559h0.659v-12.42v-155.339v-112.37
	V668.547v-220.42C2239.761,384.073,2187.835,332.148,2123.781,332.148z"/>
<rect x="959.906" y="287.872" style="fill:#BB9684;" width="1119.266" height="44.276"/>
<polygon style="fill:#BB9684;" points="585.116,287.925 558.263,287.925 558.263,255.071 319.387,255.071 319.387,287.925 
	292.534,287.925 292.534,332.148 585.116,332.148 "/>
<path style="fill:#A75B3F;" d="M705.712,987.222c0-122.289,45.718-233.901,120.994-318.675h-694.76v590.062h657.767
	C736.723,1181.406,705.712,1087.936,705.712,987.222z"/>
<path style="fill:#A75B3F;" d="M1185.853,1467.363c-108.324,0-208.267-35.873-288.603-96.385H131.946v155.339v12.42h0.659h2106.496
	h0.659v-12.42v-155.339h-765.305C1394.12,1431.49,1294.177,1467.363,1185.853,1467.363z"/>
<path style="fill:#A75B3F;" d="M1665.994,987.222c0,100.714-31.01,194.184-84.001,271.386h657.767V668.547H1545
	C1620.276,753.321,1665.994,864.932,1665.994,987.222z"/>
<ellipse transform="matrix(0.7071 -0.7071 0.7071 0.7071 -350.7429 1127.6755)" style="fill:#6B4551;" cx="1185.853" cy="987.222" rx="430.611" ry="430.612"/>
<ellipse transform="matrix(0.7071 -0.7071 0.7071 0.7071 -350.7429 1127.6755)" style="fill:#4B1C22;" cx="1185.853" cy="987.222" rx="349.312" ry="349.312"/>
<ellipse transform="matrix(0.7071 -0.7071 0.7071 0.7071 -424.2389 1305.1107)" style="fill:#FFFFFF;" cx="1363.289" cy="1164.657" rx="53.967" ry="53.967"/>
<ellipse transform="matrix(0.9859 -0.1674 0.1674 0.9859 -129.7115 190.1467)" style="fill:#FFFFFF;" cx="1063.28" cy="864.649" rx="108.829" ry="108.83"/>
<rect x="1780.484" y="463.28" style="fill:#6B4551;" width="370.706" height="154.716"/>
<rect x="1803.462" y="486.258" style="fill:#4B1C22;" width="324.75" height="108.761"/>
<ellipse transform="matrix(0.9729 -0.2314 0.2314 0.9729 -107.1207 100.9612)" style="fill:#6B4551;" cx="376.785" cy="507.081" rx="84.251" ry="84.251"/>
<path style="fill:#4B1C22;" d="M185.098,703.642c-1.574,0-2.848,1.274-2.848,2.848v473.634c0,1.575,1.274,2.849,2.848,2.849
	c1.575,0,2.848-1.274,2.848-2.849V706.49C187.947,704.916,186.673,703.642,185.098,703.642z"/>
<path style="fill:#4B1C22;" d="M215.554,813.832c-1.574,0-2.848,1.274-2.848,2.848v286.961c0,1.574,1.274,2.848,2.848,2.848
	c1.574,0,2.848-1.274,2.848-2.848V816.68C218.402,815.106,217.128,813.832,215.554,813.832z"/>
<path style="fill:#4B1C22;" d="M802.988,1395.175H313.008c-1.574,0-2.848,1.274-2.848,2.848s1.274,2.848,2.848,2.848h489.979
	c1.574,0,2.848-1.274,2.848-2.848S804.562,1395.175,802.988,1395.175z"/>
<path style="fill:#4B1C22;" d="M667.633,1414.986H497.089c-1.574,0-2.848,1.274-2.848,2.848c0,1.575,1.274,2.848,2.848,2.848
	h170.544c1.574,0,2.848-1.273,2.848-2.848C670.481,1416.26,669.207,1414.986,667.633,1414.986z"/>
<path style="fill:#4B1C22;" d="M635.15,362.71h309.957c1.574,0,2.848-1.273,2.848-2.848c0-1.574-1.273-2.848-2.848-2.848H635.15
	c-1.574,0-2.848,1.273-2.848,2.848C632.302,361.436,633.576,362.71,635.15,362.71z"/>
<path style="fill:#4B1C22;" d="M914.117,384.226c0-1.574-1.274-2.848-2.848-2.848H705.712c-1.574,0-2.848,1.274-2.848,2.848
	c0,1.575,1.274,2.848,2.848,2.848h205.558C912.843,387.074,914.117,385.801,914.117,384.226z"/>
<path style="fill:#4B1C22;" d="M2151.189,699.459h-370.706c-1.575,0-2.848,1.274-2.848,2.848s1.274,2.848,2.848,2.848h370.706
	c1.574,0,2.848-1.274,2.848-2.848S2152.763,699.459,2151.189,699.459z"/>
<path style="fill:#4B1C22;" d="M2072.601,727.884h-208.445c-1.575,0-2.849,1.273-2.849,2.848c0,1.574,1.274,2.848,2.849,2.848
	h208.445c1.574,0,2.848-1.274,2.848-2.848C2075.448,729.158,2074.175,727.884,2072.601,727.884z"/>
<path style="fill:#4B1C22;" d="M2216.074,913.316c-1.574,0-2.848,1.274-2.848,2.848v288.302c0,1.574,1.274,2.847,2.848,2.847
	c1.574,0,2.848-1.273,2.848-2.847V916.165C2218.922,914.59,2217.648,913.316,2216.074,913.316z"/>
<path style="fill:#4B1C22;" d="M2182.237,1001.297c-1.574,0-2.848,1.274-2.848,2.848v127.231c0,1.574,1.274,2.848,2.848,2.848
	c1.574,0,2.848-1.274,2.848-2.848v-127.231C2185.085,1002.571,2183.811,1001.297,2182.237,1001.297z"/>
<path style="fill:#4B1C22;" d="M2007.629,1386.088h-416.887c-1.575,0-2.848,1.274-2.848,2.848s1.274,2.848,2.848,2.848h416.887
	c1.574,0,2.848-1.274,2.848-2.848S2009.203,1386.088,2007.629,1386.088z"/>
<path style="fill:#4B1C22;" d="M1914.235,1414.986h-192.202c-1.574,0-2.848,1.274-2.848,2.848c0,1.575,1.274,2.848,2.848,2.848
	h192.202c1.575,0,2.849-1.273,2.849-2.848C1917.084,1416.26,1915.81,1414.986,1914.235,1414.986z"/>
<path style="fill:#4B1C22;" d="M690.896,923.09l0.164,0.006c1.499,0,2.757-1.171,2.84-2.687
	c3.863-68.478,24.912-135.541,60.877-193.94c0.823-1.341,0.409-3.093-0.932-3.919c-1.341-0.829-3.093-0.409-3.919,0.931
	c-36.457,59.2-57.798,127.186-61.712,196.605C688.126,921.658,689.327,923.004,690.896,923.09z"/>
<path style="fill:#4B1C22;" d="M704.755,758.27c-1.421-0.668-3.121-0.05-3.786,1.371c-19.416,41.486-30.697,87.603-32.63,133.372
	c-0.066,1.571,1.154,2.898,2.726,2.965l0.122,0.003c1.516,0,2.779-1.199,2.843-2.729c1.903-45.021,13-90.387,32.096-131.197
	C706.794,760.631,706.178,758.935,704.755,758.27z"/>
<path style="fill:#4B1C22;" d="M1570.071,857.83c-1.527,0.37-2.466,1.908-2.097,3.438c17.005,70.353,17.547,144.856,1.566,215.46
	c-0.347,1.535,0.615,3.059,2.15,3.407l0.631,0.069c1.302,0,2.475-0.895,2.776-2.219c16.173-71.452,15.625-146.856-1.588-218.057
	C1573.142,858.4,1571.604,857.457,1570.071,857.83z"/>
<path style="fill:#4B1C22;" d="M1555.612,914.858c-1.536,0.345-2.498,1.869-2.152,3.404c7.398,32.847,16.604,73.727,3.649,109.358
	c-0.539,1.48,0.226,3.113,1.702,3.65l0.973,0.172c1.163,0,2.256-0.718,2.676-1.875c13.529-37.203,4.119-78.984-3.443-112.557
	C1558.671,915.475,1557.138,914.515,1555.612,914.858z"/>
<path style="fill:#4B1C22;" d="M1010.84,1357.26c-55.859-28.233-105.272-69.602-142.892-119.629
	c-0.937-1.257-2.729-1.508-3.985-0.564c-1.257,0.943-1.51,2.728-0.565,3.985c38.14,50.725,88.237,92.667,144.873,121.293
	l1.282,0.306c1.04,0,2.044-0.57,2.545-1.563C1012.806,1359.682,1012.245,1357.969,1010.84,1357.26z"/>
<path style="fill:#4B1C22;" d="M910.613,1258.059c-1.073-1.157-2.881-1.218-4.027-0.15c-1.152,1.071-1.218,2.873-0.151,4.027
	c27.316,29.426,61.389,53.023,98.542,68.242l1.079,0.211c1.121,0,2.183-0.668,2.637-1.769c0.595-1.454-0.103-3.118-1.557-3.716
	C970.745,1310,937.367,1286.885,910.613,1258.059z"/>
<path style="fill:#4B1C22;" d="M1502.155,625.621c-75.373-63.453-170.655-105.665-268.293-118.862
	c-1.58-0.223-2.993,0.885-3.204,2.442c-0.211,1.557,0.882,2.992,2.442,3.204c96.578,13.053,190.828,54.809,265.39,117.571
	c0.534,0.451,1.185,0.671,1.83,0.671c0.812,0,1.618-0.345,2.181-1.015C1503.515,628.43,1503.359,626.634,1502.155,625.621z"/>
<path style="fill:#4B1C22;" d="M1315.301,508.587c51.451,13.67,100.319,35.067,145.251,63.597c0.473,0.303,1.001,0.445,1.524,0.445
	c0.943,0,1.864-0.467,2.406-1.321c0.846-1.33,0.451-3.087-0.876-3.93c-45.424-28.845-94.829-50.478-146.842-64.298
	c-1.513-0.387-3.081,0.504-3.484,2.022C1312.876,506.623,1313.78,508.181,1315.301,508.587z"/>
</svg>
